<svg xmlns="http://www.w3.org/2000/svg" width="20" height="20" fill="none" viewBox="0 0 20 20"><g clip-path="url(#a)"><mask id="b" width="20" height="20" x="0" y="0" maskUnits="userSpaceOnUse" style="mask-type:luminance"><path fill="#fff" d="M17.5.625h-15C1.464.625.625 1.465.625 2.5v15c0 1.035.84 1.875 1.875 1.875h15c1.035 0 1.875-.84 1.875-1.875v-15c0-1.036-.84-1.875-1.875-1.875Z"/></mask><g mask="url(#b)"><path fill="#B22234" d="M.624 2.066h18.752V.624H.624v1.442Z"/><path fill="#fff" d="M.624 3.508h18.752V2.066H.624v1.442Z"/><path fill="#B22234" d="M.624 4.95h18.752V3.509H.624v1.443Z"/><path fill="#fff" d="M.624 6.393h18.752V4.951H.624v1.442Z"/><path fill="#B22234" d="M.624 7.835h18.752V6.393H.624v1.442Z"/><path fill="#fff" d="M.624 9.278h18.752V7.835H.624v1.443Z"/><path fill="#B22234" d="M.624 10.72h18.752V9.278H.624v1.442Z"/><path fill="#fff" d="M.624 12.163h18.752V10.72H.624v1.443Z"/><path fill="#B22234" d="M.624 13.605h18.752v-1.442H.624v1.442Z"/><path fill="#fff" d="M.624 15.048h18.752v-1.443H.624v1.443Z"/><path fill="#B22234" d="M.624 16.49h18.752v-1.442H.624v1.442Z"/><path fill="#fff" d="M.624 17.933h18.752V16.49H.624v1.443Z"/><path fill="#B22234" d="M.624 19.375h18.752v-1.442H.624v1.442Z"/><path fill="#3C3B6E" d="M.625.625h10.117v10.117H.625V.625Z"/><path fill="#fff" d="m1.253 2.25.135-.557.217.213-.352.345Z"/><path fill="#fff" d="M1.102 1.628h.436l-.083.344-.353-.344Z"/><path fill="#fff" d="m1.496 1.243.135.557h-.27l.135-.557Z"/><path fill="#fff" d="m1.89 1.628-.352.344-.083-.344h.436Z"/><path fill="#fff" d="m1.74 2.25-.353-.344.218-.213.135.557ZM2.937 2.25l.135-.557.218.213-.353.345Z"/><path fill="#fff" d="M2.787 1.628h.436l-.084.344-.352-.344Z"/><path fill="#fff" d="m3.18 1.243.135.557h-.269l.135-.557Z"/><path fill="#fff" d="m3.575 1.628-.352.344-.083-.344h.435Z"/><path fill="#fff" d="m3.425 2.25-.353-.344.218-.213.135.557ZM4.622 2.25l.135-.557.217.213-.352.345Z"/><path fill="#fff" d="M4.471 1.628h.436l-.083.344-.353-.344Z"/><path fill="#fff" d="M4.865 1.243 5 1.8h-.27l.135-.557Z"/><path fill="#fff" d="m5.26 1.628-.353.344-.083-.344h.436Z"/><path fill="#fff" d="m5.109 2.25-.353-.344.218-.213.135.557ZM6.306 2.25l.135-.557.218.213-.353.345Z"/><path fill="#fff" d="M6.156 1.628h.436l-.084.344-.352-.344Z"/><path fill="#fff" d="m6.55 1.243.134.557h-.269l.135-.557Z"/><path fill="#fff" d="m6.944 1.628-.352.344-.084-.344h.436Z"/><path fill="#fff" d="m6.793 2.25-.352-.344.218-.213.134.557ZM7.991 2.25l.135-.557.218.213-.353.345Z"/><path fill="#fff" d="M7.84 1.628h.436l-.083.344-.352-.344Z"/><path fill="#fff" d="m8.235 1.243.134.557H8.1l.136-.557Z"/><path fill="#fff" d="m8.629 1.628-.353.344-.083-.344h.436Z"/><path fill="#fff" d="m8.478 2.25-.352-.344.218-.213.134.557ZM9.676 2.25l.134-.557.218.213-.352.345Z"/><path fill="#fff" d="M9.525 1.628h.436l-.083.344-.353-.344Z"/><path fill="#fff" d="m9.92 1.243.134.557h-.27l.135-.557Z"/><path fill="#fff" d="m10.314 1.628-.353.344-.083-.344h.436Z"/><path fill="#fff" d="m10.163 2.25-.353-.344.218-.213.135.557ZM2.095 3.22l.134-.556.218.212-.352.345Z"/><path fill="#fff" d="M1.944 2.598h.436l-.083.344-.353-.344Z"/><path fill="#fff" d="m2.338 2.213.135.557h-.27l.135-.557Z"/><path fill="#fff" d="m2.733 2.598-.353.344-.083-.344h.436Z"/><path fill="#fff" d="m2.582 3.22-.353-.344.218-.212.135.557ZM3.78 3.22l.134-.556.218.212-.353.345Z"/><path fill="#fff" d="M3.629 2.598h.436l-.084.344-.352-.344Z"/><path fill="#fff" d="m4.023 2.213.134.557h-.27l.136-.557Z"/><path fill="#fff" d="m4.417 2.598-.352.344-.084-.344h.436Z"/><path fill="#fff" d="m4.266 3.22-.352-.344.218-.212.134.557ZM5.464 3.22l.134-.556.218.212-.352.345Z"/><path fill="#fff" d="M5.313 2.598h.436l-.083.344-.353-.344Z"/><path fill="#fff" d="m5.707 2.213.135.557h-.27l.135-.557Z"/><path fill="#fff" d="m6.101 2.598-.352.344-.083-.344H6.1Z"/><path fill="#fff" d="m5.95 3.22-.352-.344.218-.212.135.557ZM7.148 3.22l.135-.556.218.212-.353.345Z"/><path fill="#fff" d="M6.998 2.598h.435l-.083.344-.352-.344Z"/><path fill="#fff" d="m7.391 2.213.135.557h-.27l.135-.557Z"/><path fill="#fff" d="m7.786 2.598-.353.344-.083-.344h.436Z"/><path fill="#fff" d="m7.635 3.22-.352-.344.217-.212.135.557ZM8.833 3.22l.135-.556.218.212-.353.345Z"/><path fill="#fff" d="M8.682 2.598h.436l-.083.344-.353-.344Z"/><path fill="#fff" d="m9.076 2.213.135.557h-.27l.135-.557Z"/><path fill="#fff" d="m9.47 2.598-.352.344-.083-.344h.436Z"/><path fill="#fff" d="m9.32 3.22-.353-.344.218-.212.135.557ZM1.253 4.191l.135-.557.217.213-.352.344Z"/><path fill="#fff" d="M1.102 3.569h.436l-.083.344-.353-.344Z"/><path fill="#fff" d="m1.496 3.184.135.557h-.27l.135-.557Z"/><path fill="#fff" d="m1.89 3.569-.352.344-.083-.344h.436Z"/><path fill="#fff" d="m1.74 4.191-.353-.344.218-.213.135.557ZM2.937 4.191l.135-.557.218.213-.353.344Z"/><path fill="#fff" d="M2.787 3.569h.436l-.084.344-.352-.344Z"/><path fill="#fff" d="m3.18 3.184.135.557h-.269l.135-.557Z"/><path fill="#fff" d="m3.575 3.569-.352.344-.083-.344h.435Z"/><path fill="#fff" d="m3.425 4.191-.353-.344.218-.213.135.557ZM4.622 4.191l.135-.557.217.213-.352.344Z"/><path fill="#fff" d="M4.471 3.569h.436l-.083.344-.353-.344Z"/><path fill="#fff" d="M4.865 3.184 5 3.74h-.27l.135-.557Z"/><path fill="#fff" d="m5.26 3.569-.353.344-.083-.344h.436Z"/><path fill="#fff" d="m5.109 4.191-.353-.344.218-.213.135.557ZM6.306 4.191l.135-.557.218.213-.353.344Z"/><path fill="#fff" d="M6.156 3.569h.436l-.084.344-.352-.344Z"/><path fill="#fff" d="m6.55 3.184.134.557h-.269l.135-.557Z"/><path fill="#fff" d="m6.944 3.569-.352.344-.084-.344h.436Z"/><path fill="#fff" d="m6.793 4.191-.352-.344.218-.213.134.557ZM7.991 4.191l.135-.557.218.213-.353.344Z"/><path fill="#fff" d="M7.84 3.569h.436l-.083.344-.352-.344Z"/><path fill="#fff" d="m8.235 3.184.134.557H8.1l.136-.557Z"/><path fill="#fff" d="m8.629 3.569-.353.344-.083-.344h.436Z"/><path fill="#fff" d="m8.478 4.191-.352-.344.218-.213.134.557ZM9.676 4.191l.134-.557.218.213-.352.344Z"/><path fill="#fff" d="M9.525 3.569h.436l-.083.344-.353-.344Z"/><path fill="#fff" d="m9.92 3.184.134.557h-.27l.135-.557Z"/><path fill="#fff" d="m10.314 3.569-.353.344-.083-.344h.436Z"/><path fill="#fff" d="m10.163 4.191-.353-.344.218-.213.135.557ZM2.095 5.162l.134-.557.218.212-.352.345Z"/><path fill="#fff" d="M1.944 4.539h.436l-.083.344-.353-.344Z"/><path fill="#fff" d="m2.338 4.154.135.557h-.27l.135-.557Z"/><path fill="#fff" d="m2.733 4.539-.353.344-.083-.344h.436Z"/><path fill="#fff" d="m2.582 5.162-.353-.345.218-.212.135.557ZM3.78 5.162l.134-.557.218.212-.353.345Z"/><path fill="#fff" d="M3.629 4.539h.436l-.084.344-.352-.344Z"/><path fill="#fff" d="m4.023 4.154.134.557h-.27l.136-.557Z"/><path fill="#fff" d="m4.417 4.539-.352.344-.084-.344h.436Z"/><path fill="#fff" d="m4.266 5.162-.352-.345.218-.212.134.557ZM5.464 5.162l.134-.557.218.212-.352.345Z"/><path fill="#fff" d="M5.313 4.539h.436l-.083.344-.353-.344Z"/><path fill="#fff" d="m5.707 4.154.135.557h-.27l.135-.557Z"/><path fill="#fff" d="m6.101 4.539-.352.344-.083-.344H6.1Z"/><path fill="#fff" d="m5.95 5.162-.352-.345.218-.212.135.557ZM7.148 5.162l.135-.557.218.212-.353.345Z"/><path fill="#fff" d="M6.998 4.539h.435l-.083.344-.352-.344Z"/><path fill="#fff" d="m7.391 4.154.135.557h-.27l.135-.557Z"/><path fill="#fff" d="m7.786 4.539-.353.344-.083-.344h.436Z"/><path fill="#fff" d="m7.635 5.162-.352-.345.217-.212.135.557ZM8.833 5.162l.135-.557.218.212-.353.345Z"/><path fill="#fff" d="M8.682 4.539h.436l-.083.344-.353-.344Z"/><path fill="#fff" d="m9.076 4.154.135.557h-.27l.135-.557Z"/><path fill="#fff" d="m9.47 4.539-.352.344-.083-.344h.436Z"/><path fill="#fff" d="m9.32 5.162-.353-.345.218-.212.135.557ZM1.253 6.132l.135-.557.217.213-.352.344Z"/><path fill="#fff" d="M1.102 5.51h.436l-.083.344-.353-.345Z"/><path fill="#fff" d="m1.496 5.125.135.557h-.27l.135-.557Z"/><path fill="#fff" d="m1.89 5.51-.352.344-.083-.344h.436Z"/><path fill="#fff" d="m1.74 6.132-.353-.344.218-.213.135.557ZM2.937 6.132l.135-.557.218.213-.353.344Z"/><path fill="#fff" d="M2.787 5.51h.436l-.084.344-.352-.345Z"/><path fill="#fff" d="m3.18 5.125.135.557h-.269l.135-.557Z"/><path fill="#fff" d="m3.575 5.51-.352.344-.083-.344h.435Z"/><path fill="#fff" d="m3.425 6.132-.353-.344.218-.213.135.557ZM4.622 6.132l.135-.557.217.213-.352.344Z"/><path fill="#fff" d="M4.471 5.51h.436l-.083.344-.353-.345Z"/><path fill="#fff" d="M4.865 5.125 5 5.682h-.27l.135-.557Z"/><path fill="#fff" d="m5.26 5.51-.353.344-.083-.344h.436Z"/><path fill="#fff" d="m5.109 6.132-.353-.344.218-.213.135.557ZM6.306 6.132l.135-.557.218.213-.353.344Z"/><path fill="#fff" d="M6.156 5.51h.436l-.084.344-.352-.345Z"/><path fill="#fff" d="m6.55 5.125.134.557h-.269l.135-.557Z"/><path fill="#fff" d="m6.944 5.51-.352.344-.084-.344h.436Z"/><path fill="#fff" d="m6.793 6.132-.352-.344.218-.213.134.557ZM7.991 6.132l.135-.557.218.213-.353.344Z"/><path fill="#fff" d="M7.84 5.51h.436l-.083.344-.352-.345Z"/><path fill="#fff" d="m8.235 5.125.134.557H8.1l.136-.557Z"/><path fill="#fff" d="m8.629 5.51-.353.344-.083-.344h.436Z"/><path fill="#fff" d="m8.478 6.132-.352-.344.218-.213.134.557ZM9.676 6.132l.134-.557.218.213-.352.344Z"/><path fill="#fff" d="M9.525 5.51h.436l-.083.344-.353-.345Z"/><path fill="#fff" d="m9.92 5.125.134.557h-.27l.135-.557Z"/><path fill="#fff" d="m10.314 5.51-.353.344-.083-.344h.436Z"/><path fill="#fff" d="m10.163 6.132-.353-.344.218-.213.135.557ZM2.095 7.103l.134-.558.218.213-.352.345Z"/><path fill="#fff" d="M1.944 6.48h.436l-.083.344-.353-.344Z"/><path fill="#fff" d="m2.338 6.095.135.557h-.27l.135-.557Z"/><path fill="#fff" d="m2.733 6.48-.353.344-.083-.344h.436Z"/><path fill="#fff" d="m2.582 7.103-.353-.345.218-.213.135.558ZM3.78 7.103l.134-.558.218.213-.353.345Z"/><path fill="#fff" d="M3.629 6.48h.436l-.084.344-.352-.344Z"/><path fill="#fff" d="m4.023 6.095.134.557h-.27l.136-.557Z"/><path fill="#fff" d="m4.417 6.48-.352.344-.084-.344h.436Z"/><path fill="#fff" d="m4.266 7.103-.352-.345.218-.213.134.558ZM5.464 7.103l.134-.558.218.213-.352.345Z"/><path fill="#fff" d="M5.313 6.48h.436l-.083.344-.353-.344Z"/><path fill="#fff" d="m5.707 6.095.135.557h-.27l.135-.557Z"/><path fill="#fff" d="m6.101 6.48-.352.344-.083-.344H6.1Z"/><path fill="#fff" d="m5.95 7.103-.352-.345.218-.213.135.558ZM7.148 7.103l.135-.558.218.213-.353.345Z"/><path fill="#fff" d="M6.998 6.48h.435l-.083.344-.352-.344Z"/><path fill="#fff" d="m7.391 6.095.135.557h-.27l.135-.557Z"/><path fill="#fff" d="m7.786 6.48-.353.344-.083-.344h.436Z"/><path fill="#fff" d="m7.635 7.103-.352-.345.217-.213.135.558ZM8.833 7.103l.135-.558.218.213-.353.345Z"/><path fill="#fff" d="M8.682 6.48h.436l-.083.344-.353-.344Z"/><path fill="#fff" d="m9.076 6.095.135.557h-.27l.135-.557Z"/><path fill="#fff" d="m9.47 6.48-.352.344-.083-.344h.436Z"/><path fill="#fff" d="m9.32 7.103-.353-.345.218-.213.135.558ZM1.253 8.073l.135-.557.217.213-.352.344Z"/><path fill="#fff" d="M1.102 7.45h.436l-.083.345-.353-.345Z"/><path fill="#fff" d="m1.496 7.065.135.558h-.27l.135-.558Z"/><path fill="#fff" d="m1.89 7.45-.352.345-.083-.345h.436Z"/><path fill="#fff" d="m1.74 8.073-.353-.344.218-.213.135.557ZM2.937 8.073l.135-.557.218.213-.353.344Z"/><path fill="#fff" d="M2.787 7.45h.436l-.084.345-.352-.345Z"/><path fill="#fff" d="m3.18 7.065.135.558h-.269l.135-.558Z"/><path fill="#fff" d="m3.575 7.45-.352.345-.083-.345h.435Z"/><path fill="#fff" d="m3.425 8.073-.353-.344.218-.213.135.557ZM4.622 8.073l.135-.557.217.213-.352.344Z"/><path fill="#fff" d="M4.471 7.45h.436l-.083.345-.353-.345Z"/><path fill="#fff" d="M4.865 7.065 5 7.623h-.27l.135-.558Z"/><path fill="#fff" d="m5.26 7.45-.353.345-.083-.345h.436Z"/><path fill="#fff" d="m5.109 8.073-.353-.344.218-.213.135.557ZM6.306 8.073l.135-.557.218.213-.353.344Z"/><path fill="#fff" d="M6.156 7.45h.436l-.084.345-.352-.345Z"/><path fill="#fff" d="m6.55 7.065.134.558h-.269l.135-.558Z"/><path fill="#fff" d="m6.944 7.45-.352.345-.084-.345h.436Z"/><path fill="#fff" d="m6.793 8.073-.352-.344.218-.213.134.557ZM7.991 8.073l.135-.557.218.213-.353.344Z"/><path fill="#fff" d="M7.84 7.45h.436l-.083.345-.352-.345Z"/><path fill="#fff" d="m8.235 7.065.134.558H8.1l.136-.558Z"/><path fill="#fff" d="m8.629 7.45-.353.345-.083-.345h.436Z"/><path fill="#fff" d="m8.478 8.073-.352-.344.218-.213.134.557ZM9.676 8.073l.134-.557.218.213-.352.344Z"/><path fill="#fff" d="M9.525 7.45h.436l-.083.345-.353-.345Z"/><path fill="#fff" d="m9.92 7.065.134.558h-.27l.135-.558Z"/><path fill="#fff" d="m10.314 7.45-.353.345-.083-.345h.436Z"/><path fill="#fff" d="M10.163 8.073 9.81 7.73l.218-.213.135.557ZM2.095 9.043l.134-.557.218.213-.352.344Z"/><path fill="#fff" d="M1.944 8.42h.436l-.083.345-.353-.344Z"/><path fill="#fff" d="m2.338 8.036.135.557h-.27l.135-.557Z"/><path fill="#fff" d="m2.733 8.42-.353.345-.083-.344h.436Z"/><path fill="#fff" d="M2.582 9.043 2.229 8.7l.218-.213.135.557ZM3.78 9.043l.134-.557.218.213-.353.344Z"/><path fill="#fff" d="M3.629 8.42h.436l-.084.345-.352-.344Z"/><path fill="#fff" d="m4.023 8.036.134.557h-.27l.136-.557Z"/><path fill="#fff" d="m4.417 8.42-.352.345-.084-.344h.436Z"/><path fill="#fff" d="M4.266 9.043 3.914 8.7l.218-.213.134.557ZM5.464 9.043l.134-.557.218.213-.352.344Z"/><path fill="#fff" d="M5.313 8.42h.436l-.083.345-.353-.344Z"/><path fill="#fff" d="m5.707 8.036.135.557h-.27l.135-.557Z"/><path fill="#fff" d="m6.101 8.42-.352.345-.083-.344H6.1Z"/><path fill="#fff" d="M5.95 9.043 5.599 8.7l.218-.213.135.557ZM7.148 9.043l.135-.557.218.213-.353.344Z"/><path fill="#fff" d="M6.998 8.42h.435l-.083.345-.352-.344Z"/><path fill="#fff" d="m7.391 8.036.135.557h-.27l.135-.557Z"/><path fill="#fff" d="m7.786 8.42-.353.345-.083-.344h.436Z"/><path fill="#fff" d="M7.635 9.043 7.283 8.7l.217-.213.135.557ZM8.833 9.043l.135-.557.218.213-.353.344Z"/><path fill="#fff" d="M8.682 8.42h.436l-.083.345-.353-.344Z"/><path fill="#fff" d="m9.076 8.036.135.557h-.27l.135-.557Z"/><path fill="#fff" d="m9.47 8.42-.352.345-.083-.344h.436Z"/><path fill="#fff" d="M9.32 9.043 8.967 8.7l.218-.213.135.557ZM1.253 10.014l.135-.557.217.213-.352.344Z"/><path fill="#fff" d="M1.102 9.391h.436l-.083.345-.353-.345Z"/><path fill="#fff" d="m1.496 9.006.135.557h-.27l.135-.557Z"/><path fill="#fff" d="m1.89 9.391-.352.345-.083-.345h.436Z"/><path fill="#fff" d="m1.74 10.014-.353-.344.218-.213.135.557ZM2.937 10.014l.135-.557.218.213-.353.344Z"/><path fill="#fff" d="M2.787 9.391h.436l-.084.345-.352-.345Z"/><path fill="#fff" d="m3.18 9.006.135.557h-.269l.135-.557Z"/><path fill="#fff" d="m3.575 9.391-.352.345-.083-.345h.435Z"/><path fill="#fff" d="m3.425 10.014-.353-.344.218-.213.135.557ZM4.622 10.014l.135-.557.217.213-.352.344Z"/><path fill="#fff" d="M4.471 9.391h.436l-.083.345-.353-.345Z"/><path fill="#fff" d="M4.865 9.006 5 9.563h-.27l.135-.557Z"/><path fill="#fff" d="m5.26 9.391-.353.345-.083-.345h.436Z"/><path fill="#fff" d="m5.109 10.014-.353-.344.218-.213.135.557ZM6.306 10.014l.135-.557.218.213-.353.344Z"/><path fill="#fff" d="M6.156 9.391h.436l-.084.345-.352-.345Z"/><path fill="#fff" d="m6.55 9.006.134.557h-.269l.135-.557Z"/><path fill="#fff" d="m6.944 9.391-.352.345-.084-.345h.436Z"/><path fill="#fff" d="m6.793 10.014-.352-.344.218-.213.134.557ZM7.991 10.014l.135-.557.218.213-.353.344Z"/><path fill="#fff" d="M7.84 9.391h.436l-.083.345-.352-.345Z"/><path fill="#fff" d="m8.235 9.006.134.557H8.1l.136-.557Z"/><path fill="#fff" d="m8.629 9.391-.353.345-.083-.345h.436Z"/><path fill="#fff" d="m8.478 10.014-.352-.344.218-.213.134.557ZM9.676 10.014l.134-.557.218.213-.352.344Z"/><path fill="#fff" d="M9.525 9.391h.436l-.083.345-.353-.345Z"/><path fill="#fff" d="m9.92 9.006.134.557h-.27l.135-.557Z"/><path fill="#fff" d="m10.314 9.391-.353.345-.083-.345h.436Z"/><path fill="#fff" d="M10.163 10.014 9.81 9.67l.218-.213.135.557Z"/></g></g><defs><clipPath id="a"><path fill="#fff" d="M0 0h20v20H0z"/></clipPath></defs></svg>