<svg xmlns="http://www.w3.org/2000/svg" width="80" height="80" fill="none" viewBox="0 0 80 80"><path fill="#00B8D4" d="M71.875 41.35h-.131a5.449 5.449 0 0 0-1.731-3.988v-3.368a29.972 29.972 0 0 0-59.944 0v3.294a5.447 5.447 0 0 0-1.812 4.062h-.132a4.817 4.817 0 0 0-4.813 4.813v3.143a4.818 4.818 0 0 0 4.813 4.813h.131a5.468 5.468 0 0 0 5.463 5.462h5.493c2.438 0 3.144-.706 3.144-3.144V39.026c0-2.431-.706-3.137-3.144-3.137h-1.388v-1.894a22.216 22.216 0 0 1 44.432 0v1.894h-1.468c-2.438 0-3.144.706-3.144 3.137v17.413c0 2.437.706 3.143 3.144 3.143h4.03v4.125a7.154 7.154 0 0 1-7.143 7.144H46.319a3.875 3.875 0 0 0-3.663-2.631h-5.225a3.878 3.878 0 1 0 0 7.756h5.225a3.875 3.875 0 0 0 3.663-2.625h11.356a9.653 9.653 0 0 0 9.644-9.644v-4.225a5.467 5.467 0 0 0 4.425-5.362h.131a4.817 4.817 0 0 0 4.813-4.813v-3.143a4.817 4.817 0 0 0-4.813-4.813ZM8.256 51.619h-.131a2.312 2.312 0 0 1-2.313-2.313v-3.143a2.312 2.312 0 0 1 2.313-2.313h.131v7.769ZM43.212 73.35a1.276 1.276 0 0 1-.556.125h-5.225a1.378 1.378 0 1 1 0-2.756h5.225a1.374 1.374 0 0 1 .556 2.631Zm-24-34.962c.263 0 .476.006.632.012.006.156.012.363.012.625v17.413c0 .268-.006.474-.012.63a15.57 15.57 0 0 1-.632.013H13.72a2.967 2.967 0 0 1-2.963-2.969V41.35A2.965 2.965 0 0 1 12 38.937c.02-.013.04-.029.059-.043h.004a2.961 2.961 0 0 1 1.656-.506h5.493ZM40.044 9.28a24.744 24.744 0 0 0-24.72 24.713v1.894H13.72c-.387 0-.772.041-1.15.125v-2.02a27.472 27.472 0 0 1 54.943 0v2.038a5.301 5.301 0 0 0-1.23-.143h-1.526v-1.894A24.74 24.74 0 0 0 40.044 9.28Zm29.2 44.831a2.961 2.961 0 0 1-1.931 2.782 1.25 1.25 0 0 0-2.494.075v.112h-4.032c-.262 0-.474-.006-.63-.012a15.31 15.31 0 0 1-.013-.632V39.026c0-.262.006-.469.012-.625.157-.006.369-.012.632-.012h5.493c.59 0 1.167.176 1.656.506.023.016.043.032.063.048.02.016.05.041.076.059a2.957 2.957 0 0 1 1.166 2.349l.002 12.762Zm4.944-4.806a2.312 2.312 0 0 1-2.313 2.313h-.131V43.85h.131a2.312 2.312 0 0 1 2.313 2.313v3.143Z"/></svg>