<svg xmlns="http://www.w3.org/2000/svg" width="81" height="80" fill="none" viewBox="0 0 81 80"><path fill="#00B8D4" d="M71.25 25.307a6.257 6.257 0 0 0-6.25 6.25v10.355a6.208 6.208 0 0 0-1.794.032l-.04.007c-.175.03-.35.066-.522.111l-.098.026a6.098 6.098 0 0 0-.465.148c-.04.014-.079.027-.117.042a7.279 7.279 0 0 0-.466.202c-.03.014-.06.026-.088.04-.184.092-.365.19-.542.302l-5.7 3.584c-10.207 6.398-10.5 6.93-10.482 18.977v6.371c0 4.264.98 5.244 5.244 5.244h8.458c1.938 0 3.279-.07 4.226-1.018.947-.947 1.019-2.288 1.018-4.245v-.41c0-1.692 0-2.812.25-3.224.25-.412 1.243-.923 2.745-1.696l.375-.193c3.407-1.756 10.5-5.41 10.5-14.555v-20.1a6.257 6.257 0 0 0-6.25-6.25h-.002Zm3.125 26.35c0 6.68-4.544 9.582-8.804 11.778l-.375.191c-4.387 2.257-4.694 2.761-4.687 7.702v.426c.021.669-.019 1.338-.12 2-.661.102-1.33.142-2 .12H49.93a10.865 10.865 0 0 1-2-.12 10.865 10.865 0 0 1-.12-2v-6.375c-.008-5.488-.013-8.243 1.01-10.094 1.007-1.822 3.285-3.27 7.78-6.088.005 0 .011-.005.016-.008l5.916-3.72a3.08 3.08 0 0 1 .629-.298c.172-.062.35-.11.53-.14.188-.03.38-.042.57-.037a3.161 3.161 0 0 1 .58.067c.022.004.043.007.063.012.177.042.35.1.517.172.04.017.08.04.12.062a3.11 3.11 0 0 1 .313 5.453l-5.598 3.52a1.562 1.562 0 1 0 1.663 2.645l5.598-3.518a6.258 6.258 0 0 0 1.964-8.619 6.196 6.196 0 0 0-1.362-1.526V31.556a3.125 3.125 0 1 1 6.25 0l.006 20.1ZM14 66.212l.375.193c1.5.773 2.494 1.283 2.745 1.696.251.413.25 1.532.25 3.224v.429c0 4.264.98 5.244 5.244 5.244h8.456c4.264 0 5.244-.98 5.244-5.244v-6.37c.02-12.048-.275-12.58-10.483-18.978l-5.7-3.584c-.02-.013-.042-.022-.062-.034a6.36 6.36 0 0 0-.61-.328c-.08-.037-.16-.07-.242-.105a6.905 6.905 0 0 0-.483-.18c-.086-.027-.17-.057-.258-.081a6.118 6.118 0 0 0-.67-.15c-.104-.016-.21-.023-.313-.034a6.18 6.18 0 0 0-.778-.04c-.119 0-.237.01-.355.019a6.507 6.507 0 0 0-.996.148c-.109.026-.216.058-.323.09a6.25 6.25 0 0 0-.446.15c-.08.03-.16.058-.24.093-.233.098-.46.212-.68.338l-.026.014c-.008.005-.02.016-.033.023a6.24 6.24 0 0 0-.135 10.659l5.597 3.519a1.563 1.563 0 0 0 1.663-2.646l-5.597-3.52a3.111 3.111 0 0 1 .32-5.456c.036-.018.072-.039.108-.055.17-.074.347-.132.528-.175l.041-.008c.176-.038.354-.06.533-.068h.056c.38-.01.76.052 1.117.179l.105.039c.18.069.354.155.519.257l5.914 3.718.016.007c4.495 2.818 6.773 4.267 7.78 6.088 1.023 1.852 1.018 4.607 1.01 10.095v6.375c.022.669-.018 1.338-.12 2-.661.101-1.33.141-2 .12h-8.46a10.873 10.873 0 0 1-2-.12 10.974 10.974 0 0 1-.12-2.018v-.408c.005-4.94-.302-5.444-4.687-7.701l-.375-.192c-4.258-2.195-8.804-5.097-8.804-11.777v-20.1a3.125 3.125 0 0 1 6.25 0V37.7a1.563 1.563 0 1 0 3.125 0v-6.143a6.25 6.25 0 0 0-12.5 0v20.1c0 9.145 7.091 12.799 10.5 14.555ZM29.994 37.584c.797.637 1.66 1.282 2.634 1.972l.163.116c3.677 2.605 5.694 3.907 7.71 3.907 2.018 0 4.027-1.297 7.687-3.891l.187-.133A64.54 64.54 0 0 0 51 37.593c9.47-7.478 14.145-16.16 12.826-23.822a12.858 12.858 0 0 0-8.361-10.138c-4.418-1.5-9.136-.346-12.945 3.17-.546.506-1.683 1.558-2.007 1.618-.347-.063-1.492-1.113-2.04-1.619-3.804-3.514-8.52-4.669-12.935-3.17a12.857 12.857 0 0 0-8.364 10.14c-1.318 7.662 3.357 16.343 12.82 23.812Zm16.391-.446c-3.02 2.137-4.683 3.313-5.884 3.313-1.203 0-2.875-1.188-5.902-3.33l-.161-.114a64.552 64.552 0 0 1-.75-.54c-.079-.057-.153-.113-.23-.17a30.922 30.922 0 0 1-.486-.362l-.11-.083c.76-1.847 1.263-2.81 1.9-3.194.825-.496 2.584-.5 5.507-.495h.587c2.875.006 4.606 0 5.407.49.62.38 1.119 1.345 1.88 3.2l-.134.102c-.47.355-.95.708-1.433 1.05l-.191.133ZM20.254 14.302a9.615 9.615 0 0 1 6.288-7.71 8.731 8.731 0 0 1 2.813-.467 10.362 10.362 0 0 1 7 2.974c3.532 3.254 4.771 3.254 8.287 0 2.938-2.714 6.52-3.629 9.819-2.506a9.614 9.614 0 0 1 6.289 7.709c1.047 6.078-2.615 13.118-10.087 19.525-2.058-4.577-3.547-4.79-9.757-4.79h-.687c-6.305 0-7.813.212-9.875 4.786-7.475-6.403-11.136-13.442-10.09-19.52Z"/><path fill="#00B8D4" d="M40.5 27.355a6.908 6.908 0 1 0-6.908-6.908 6.916 6.916 0 0 0 6.908 6.908Zm0-10.69a3.783 3.783 0 1 1 0 7.565 3.783 3.783 0 0 1 0-7.566Z"/></svg>