<svg xmlns="http://www.w3.org/2000/svg" width="1394" height="1394" fill="none" viewBox="0 0 1394 1394"><path fill="#F0F0F0" d="M606.912 587.852c51.208 13.404 102.416 22.978 153.625 30.638 87.243 15.318 174.486 28.722 257.943 53.616 51.2 15.318 98.62 32.552 140.34 67.019 13.28 9.575 24.66 21.063 32.25 34.467 13.27 24.894 28.44 47.87 43.62 70.85 9.48 19.148 15.17 40.211 15.17 61.275 0 15.318-3.79 30.637-9.48 45.956-11.39 36.38-34.14 65.107-58.8 93.827-41.72 49.78-94.83 90-149.83 126.38-174.488 107.23-362.252 176.16-561.394 212.54-39.828 5.75-79.658 9.58-117.59 9.58-53.103 0-104.312-5.75-155.52-21.06-55.001-17.24-106.21-42.13-146.038-84.26C15.172 1250.39 0 1204.43 0 1154.65c0-9.58 1.896-21.07 1.896-30.64 9.483-74.68 47.414-137.872 91.037-197.23 66.381-88.083 147.934-160.847 233.281-225.951 51.209-38.298 102.417-70.848 153.625-103.401 5.69-3.83 11.38-7.659 15.173-9.575 3.793-1.915 5.689-5.744 5.689-7.659s-1.896-3.831-3.793-5.745L477.941 555.3c-22.759-21.062-32.242-45.956-32.242-72.763 0-13.405 3.793-26.809 9.483-42.127 13.277-40.211 37.933-72.763 66.382-105.315 45.518-51.701 96.726-97.656 153.624-137.868 81.555-63.19 170.695-114.89 267.422-153.187 53.103-21.062 110-36.38 166.9-42.125C1117.1 0 1126.58 0 1136.06 0c17.07 0 36.04 1.915 55.01 7.66 24.65 7.658 45.51 21.062 56.89 47.87 3.8 7.66 7.59 15.318 11.38 21.063 5.69 9.573 7.59 17.234 7.59 24.892 0 13.404-5.69 24.893-15.17 34.467-13.28 17.234-30.35 32.553-49.32 44.041-75.86 45.956-157.41 78.509-244.657 93.827-18.966 3.831-39.83 3.831-60.691 5.744h-13.278c-5.689-1.913-13.276-3.828-13.276-13.403 1.898-5.745 7.588-7.659 13.276-9.575 26.554-1.915 53.106-3.829 77.762-7.659 66.384-15.319 130.864-40.212 189.664-74.679 24.65-13.403 45.51-32.553 62.58-53.615 7.59-7.66 15.18-17.235 17.07-28.722 0-1.915-1.89-5.746-1.89-7.66-5.69-11.49-20.87-9.575-32.25-11.49h-9.48c-32.24 0-64.48 7.66-94.83 17.235-79.65 22.977-153.623 59.36-223.797 103.4-92.933 57.446-176.385 126.38-252.248 204.888-26.554 30.638-55.002 61.275-70.175 99.572-7.588 13.404-11.381 26.808-13.276 40.212l1.895 5.745c0 9.575 0 15.318 5.69 15.318 1.898 0 5.691-1.915 11.381-3.831 51.208-26.807 98.621-55.53 149.829-80.422 110.004-51.702 218.111-103.402 333.801-141.699 91.04-28.722 182.08-51.701 275.01-67.019 13.28-1.915 28.45-3.829 43.62-3.829 3.79 0 7.59-1.915 11.38-1.915 3.79 0 9.48 1.915 13.28 3.829 7.58 1.915 15.17 3.831 15.17 11.49-1.9 5.744-3.79 5.744-7.59 5.744h-9.48c-34.14 1.915-68.28 7.66-102.42 15.319-149.83 32.552-292.073 84.252-432.421 143.612-87.243 38.297-170.693 78.509-252.248 124.464-5.689 1.915-11.379 3.831-15.172 11.489 9.485 5.745 22.761 7.66 32.243 11.489ZM34.139 1202.51c15.173 68.94 58.796 112.98 121.383 137.87 47.415 17.24 94.829 24.9 146.037 24.9h17.071c47.413-1.92 94.828-7.66 140.346-19.15 134.661-32.56 261.731-84.26 385.011-149.36 77.76-42.13 155.522-90 223.803-149.36 34.14-30.64 68.27-63.186 92.93-103.399 13.27-22.977 22.76-47.87 28.45-76.593v-15.319c1.9-17.232-5.69-32.552-24.66-44.04-20.86-13.404-41.72-26.808-62.58-36.382-56.9-24.893-115.698-40.211-176.388-53.615-81.555-17.234-163.11-32.553-244.662-47.871-41.725-9.573-87.243-17.235-123.28-45.957-13.277-9.573-22.759-13.403-34.138-13.403-13.277 0-26.554 5.744-41.725 15.318-108.106 68.934-208.627 147.443-297.765 241.27-39.83 40.212-75.865 84.254-104.314 134.041-24.656 45.95-45.519 95.74-47.415 149.36v38.29c0 3.83 1.896 9.58 1.896 13.4Z"/></svg>