<svg xmlns="http://www.w3.org/2000/svg" width="21" height="21" fill="none" viewBox="0 0 21 21"><g clip-path="url(#a)"><path stroke="#00B8D4" stroke-linecap="round" stroke-linejoin="round" stroke-width="1.4" d="m13.115 17.548.01.007a4.1 4.1 0 0 0 5.1-.56l.573-.574a1.366 1.366 0 0 0 0-1.932l-2.416-2.415a1.365 1.365 0 0 0-1.933 0 1.366 1.366 0 0 1-1.932 0L8.653 8.209a1.366 1.366 0 0 1 0-1.932 1.366 1.366 0 0 0 0-1.933L6.237 1.93a1.366 1.366 0 0 0-1.932 0l-.574.573a4.099 4.099 0 0 0-.559 5.101l.005.01a36.988 36.988 0 0 0 9.938 9.935v0Z"/></g><defs><clipPath id="a"><path fill="#fff" d="M.864.163h20v20h-20z"/></clipPath></defs></svg>