<svg xmlns="http://www.w3.org/2000/svg" width="1190" height="1190" fill="none" viewBox="0 0 1190 1190"><path fill="#00B8D4" d="M518.096 501.825c43.714 11.442 87.428 19.615 131.143 26.154 74.475 13.077 148.951 24.519 220.191 45.77 43.714 13.076 84.189 27.789 119.809 57.211 11.331 8.174 21.051 17.981 27.521 29.424 11.34 21.25 24.29 40.864 37.24 60.481 8.1 16.346 12.95 34.327 12.95 52.308 0 13.077-3.24 26.153-8.09 39.231-9.72 31.056-29.15 55.575-50.19 80.097-35.621 42.498-80.956 76.826-127.907 107.879-148.954 91.54-309.24 150.39-479.24 181.45-33.999 4.9-68 8.17-100.381 8.17-45.332 0-89.047-4.9-132.761-17.98-46.952-14.71-90.667-35.96-124.667-71.92C12.952 1067.4 0 1028.17 0 985.674c0-8.175 1.619-17.981 1.619-26.154 8.095-63.752 40.475-117.695 77.714-168.367C136 715.96 205.618 653.845 278.476 598.268c43.714-32.692 87.428-60.479 131.143-88.268 4.857-3.27 9.714-6.539 12.952-8.174 3.238-1.635 4.856-4.904 4.856-6.539 0-1.634-1.618-3.27-3.238-4.903l-16.19-16.347c-19.429-17.981-27.524-39.231-27.524-62.115 0-11.443 3.238-22.885 8.095-35.962 11.334-34.327 32.382-62.115 56.667-89.903 38.857-44.135 82.572-83.365 131.143-117.693C646 114.422 722.096 70.287 804.667 37.595c45.332-17.98 93.904-31.057 142.476-35.96C953.619 0 961.714 0 969.809 0c14.573 0 30.761 1.635 46.951 6.538 21.05 6.539 38.86 17.98 48.57 40.865 3.24 6.54 6.48 13.077 9.72 17.981 4.86 8.172 6.47 14.713 6.47 21.25 0 11.442-4.85 21.25-12.95 29.423-11.33 14.712-25.9 27.789-42.09 37.595-64.766 39.231-134.385 67.02-208.86 80.097-16.191 3.27-34.001 3.27-51.81 4.904h-11.335c-4.856-1.634-11.332-3.269-11.332-11.443 1.62-4.903 6.477-6.538 11.332-8.173 22.668-1.635 45.335-3.269 66.383-6.539 56.667-13.076 111.714-34.327 161.904-63.75 21.048-11.442 38.858-27.788 53.428-45.769 6.48-6.538 12.95-14.712 14.57-24.519 0-1.634-1.62-4.904-1.62-6.538-4.85-9.809-17.81-8.174-27.52-9.809h-8.1c-27.52 0-55.043 6.539-80.948 14.713-67.999 19.615-131.143 50.673-191.048 88.268-79.333 49.04-150.572 107.886-215.333 174.905-22.668 26.154-46.953 52.308-59.905 85-6.478 11.442-9.716 22.884-11.334 34.328l1.618 4.903c0 8.174 0 13.077 4.858 13.077 1.62 0 4.857-1.635 9.714-3.27 43.715-22.884 84.19-47.404 127.904-68.654C692.952 361.248 785.238 317.114 884 284.421c77.713-24.519 155.43-44.135 234.76-57.211 11.33-1.635 24.29-3.269 37.24-3.269 3.24 0 6.48-1.634 9.71-1.634 3.24 0 8.1 1.634 11.34 3.268 6.47 1.635 12.95 3.27 12.95 9.808-1.62 4.904-3.24 4.904-6.48 4.904h-8.09c-29.14 1.635-58.29 6.539-87.43 13.077-127.904 27.789-249.334 71.923-369.144 122.596-74.475 32.692-145.713 67.02-215.334 106.25-4.856 1.634-9.713 3.27-12.951 9.807 8.097 4.904 19.43 6.54 27.525 9.808ZM29.144 1026.54c12.952 58.84 50.19 96.44 103.619 117.69 40.476 14.71 80.951 21.25 124.665 21.25h14.573c40.475-1.64 80.951-6.54 119.808-16.35 114.954-27.79 223.429-71.92 328.668-127.5 66.38-35.958 132.763-76.824 191.048-127.499 29.143-26.154 58.285-53.94 79.333-88.268 11.332-19.614 19.432-40.865 24.282-65.385v-13.076c1.62-14.711-4.85-27.788-21.044-37.596-17.809-11.442-35.619-22.884-53.428-31.057-48.571-21.251-98.763-34.327-150.571-45.769-69.62-14.713-139.24-27.789-208.858-40.866-35.619-8.172-74.476-14.712-105.239-39.231-11.334-8.172-19.429-11.442-29.142-11.442-11.335 0-22.668 4.904-35.619 13.077-92.286 58.846-178.096 125.866-254.19 205.961C123.048 774.807 92.286 812.404 68 854.904c-21.047 39.228-38.856 81.729-40.475 127.5v32.686c0 3.27 1.619 8.18 1.619 11.45Z" opacity=".4"/></svg>