<svg xmlns="http://www.w3.org/2000/svg" width="80" height="80" fill="none" viewBox="0 0 80 80"><path fill="#00B8D4" d="M27.75 37.862a1.25 1.25 0 0 1-1.25-1 12.72 12.72 0 0 1-.25-2.087l-.4-7.825a1.252 1.252 0 0 1 2.5-.137l.4 7.825c.026.58.097 1.156.212 1.724A1.25 1.25 0 0 1 28 37.837l-.25.025ZM40 40.35a7.2 7.2 0 0 1-4.7-1.962 1.254 1.254 0 1 1 1.637-1.9c2.113 1.812 4.025 1.812 6.25 0a1.252 1.252 0 1 1 1.6 1.925A7.5 7.5 0 0 1 40 40.35ZM47.312 52.3a1.247 1.247 0 0 1-.887-.362 1.25 1.25 0 0 1-.363-.913l-.362-6.487a1.25 1.25 0 0 1 1.66-1.247 1.251 1.251 0 0 1 .84 1.109l.362 6.575a1.25 1.25 0 0 1-.737 1.25 1.25 1.25 0 0 1-.513.075ZM32.7 52.287h-.063a1.25 1.25 0 0 1-1.187-1.325l.362-6.562a1.252 1.252 0 1 1 2.5.137L33.95 51.1a1.25 1.25 0 0 1-1.25 1.187ZM10 75a1.25 1.25 0 0 1-1.25-1.25 23.138 23.138 0 0 1 8.337-17.275 1.249 1.249 0 0 1 1.763.162 1.25 1.25 0 0 1-.163 1.75A20.599 20.599 0 0 0 11.25 73.75 1.25 1.25 0 0 1 10 75ZM21.988 75a4.812 4.812 0 1 1 0-9.623 4.812 4.812 0 0 1 0 9.623Zm0-7.125a2.313 2.313 0 1 0 0 4.625 2.313 2.313 0 0 0 0-4.625Z"/><path fill="#00B8D4" d="M21.988 67.875a1.25 1.25 0 0 1-1.25-1.25V54.837a1.25 1.25 0 1 1 2.5 0v11.788a1.25 1.25 0 0 1-1.25 1.25ZM35.225 64.7A7.387 7.387 0 0 1 30 61.988a1.25 1.25 0 1 1 1.962-1.55s1.763 2.137 3.913 1.7c1.25-.263 2.225-2.238 2.687-3.75a11.874 11.874 0 0 1-6.437-5.638l-3.538 1.838a1.252 1.252 0 1 1-1.15-2.225l4.725-2.5a1.25 1.25 0 0 1 1.75.675c1.075 2.875 3.088 4.675 6.525 5.825a1.25 1.25 0 0 1 .813 1.475c-.113.612-1.25 6-4.888 6.75a5.778 5.778 0 0 1-1.137.112ZM70 75a1.25 1.25 0 0 1-1.25-1.25 20.6 20.6 0 0 0-7.5-15.363 1.25 1.25 0 0 1-.163-1.75 1.251 1.251 0 0 1 1.763-.162 23.137 23.137 0 0 1 8.4 17.275A1.25 1.25 0 0 1 70 75Z"/><path fill="#00B8D4" d="M40 75a1.25 1.25 0 0 1-.862-.35 46.813 46.813 0 0 1-12.075-19.875l-1.013.113a1.25 1.25 0 0 1-1.425-1.038 1.25 1.25 0 0 1 1.038-1.425 14.54 14.54 0 0 1 2.312-.188 1.25 1.25 0 0 1 1.25.888A44.75 44.75 0 0 0 40 71.987a44.75 44.75 0 0 0 10.825-18.862 1.25 1.25 0 0 1 1.25-.888c.775.001 1.548.064 2.313.188a1.25 1.25 0 0 1 1.037 1.425A1.25 1.25 0 0 1 54 54.888l-1.013-.113A46.813 46.813 0 0 1 40.912 74.65 1.25 1.25 0 0 1 40 75ZM58.013 62.162a1.25 1.25 0 0 1-1.25-1.25v-6.075a1.25 1.25 0 1 1 2.5 0v6.075a1.25 1.25 0 0 1-1.25 1.25Z"/><path fill="#00B8D4" d="M44.775 64.7a5.788 5.788 0 0 1-1.113-.113c-3.687-.75-4.775-6.137-4.887-6.75a1.25 1.25 0 0 1 .825-1.412c3.437-1.15 5.45-2.95 6.525-5.825a1.25 1.25 0 0 1 1.85-.6l4.625 2.387a1.252 1.252 0 1 1-1.15 2.225l-3.55-1.837a11.838 11.838 0 0 1-6.413 5.625c.425 1.425 1.325 3.475 2.675 3.75 2.163.437 3.888-1.675 3.9-1.7A1.25 1.25 0 0 1 50 61.987a7.388 7.388 0 0 1-5.225 2.713ZM62.987 73.225H61.45a1.25 1.25 0 1 1 0-2.5h.287v-4.837a3.75 3.75 0 1 0-7.5 0v4.837h.338a1.25 1.25 0 0 1 0 2.5H53.05a1.25 1.25 0 0 1-1.25-1.25v-6.087a6.25 6.25 0 0 1 12.5 0v6.087a1.248 1.248 0 0 1-1.313 1.25ZM22.913 49.375a18.938 18.938 0 0 1-9.813-2.987 1.25 1.25 0 0 1-.6-1.1 1.251 1.251 0 0 1 .663-1.063c3.75-2.063 5.675-6.7 5.775-14.225a1.25 1.25 0 0 1 2.5 0 5.425 5.425 0 0 0 1.65 4.1 5.877 5.877 0 0 0 4.55 1.25 1.25 1.25 0 0 1 1.325.95 11.162 11.162 0 0 0 4.787 7.125 1.25 1.25 0 0 1 0 2.063 18.4 18.4 0 0 1-10.837 3.887ZM16.15 45.2a14.35 14.35 0 0 0 14.763-.788A13.838 13.838 0 0 1 26.8 37.9a8.075 8.075 0 0 1-5.375-1.938 4.694 4.694 0 0 1-.437-.425c-.725 4.463-2.325 7.6-4.838 9.663ZM52.25 37.862H52a1.25 1.25 0 0 1-.962-1.474c.116-.577.187-1.163.212-1.75l.4-7.825a1.252 1.252 0 0 1 2.5.137l-.4 7.825c-.034.702-.126 1.4-.275 2.087a1.25 1.25 0 0 1-1.225 1Z"/><path fill="#00B8D4" d="M59.813 31.25a1.25 1.25 0 0 1-1.25-1.175 2.21 2.21 0 0 0-.738-1.712c-.825-.625-2.5-.725-4.675-.288a.812.812 0 0 1-.25 0c-6.25 0-10.55-2.162-12.9-6.25-2.35 4.138-6.675 6.25-12.9 6.25a.812.812 0 0 1-.25 0c-2.187-.437-3.85-.337-4.675.288a2.214 2.214 0 0 0-.737 1.712 1.25 1.25 0 0 1-2.5 0c0-.55-1.038-13.45 4.9-20.312a13.326 13.326 0 0 1 11.25-4.788c1.703.114 3.37.546 4.912 1.275A13.625 13.625 0 0 1 45 5a13.325 13.325 0 0 1 11.25 4.788c5.938 6.862 5 19.762 4.9 20.312a1.25 1.25 0 0 1-1.337 1.15ZM34.213 7.5a10.913 10.913 0 0 0-8.488 3.963c-3.362 3.887-4.187 10.35-4.337 14.5a9.288 9.288 0 0 1 5.825-.325c6.25-.075 10.087-2.5 11.587-7.325a1.251 1.251 0 0 1 2.4 0c1.5 4.85 5.3 7.25 11.588 7.325a9.288 9.288 0 0 1 5.825.325c-.15-4.15-.975-10.613-4.338-14.5a11.25 11.25 0 0 0-13.362-2.9 1.25 1.25 0 0 1-1.825 0A10.662 10.662 0 0 0 34.213 7.5Z"/><path fill="#00B8D4" d="M57.087 49.375a18.4 18.4 0 0 1-10.837-3.888 1.25 1.25 0 0 1 0-2.062 11.163 11.163 0 0 0 4.775-7.112 1.25 1.25 0 0 1 1.325-.95 5.875 5.875 0 0 0 4.55-1.25A5.424 5.424 0 0 0 58.562 30a1.25 1.25 0 1 1 2.5 0c.1 7.5 1.988 12.163 5.775 14.225a1.25 1.25 0 0 1 .663 1.063 1.249 1.249 0 0 1-.6 1.1 18.938 18.938 0 0 1-9.813 2.987Zm-8-5a14.35 14.35 0 0 0 14.763.788c-2.5-2.063-4.113-5.263-4.838-9.663a4.681 4.681 0 0 1-.437.425 8.075 8.075 0 0 1-5.375 1.938 13.837 13.837 0 0 1-4.113 6.55v-.038Z"/><path fill="#00B8D4" d="M40 47.825a13.75 13.75 0 0 1-7.637-2.312 1.252 1.252 0 0 1-.403-1.771 1.25 1.25 0 0 1 1.79-.304 11.45 11.45 0 0 0 12.5 0 1.253 1.253 0 1 1 1.388 2.087 13.75 13.75 0 0 1-7.638 2.3Z"/></svg>